<svg width="302" height="421" viewBox="0 0 302 421" fill="none" xmlns="http://www.w3.org/2000/svg">
<path d="M142.671 260.5L143.649 260.293L142.671 260.5ZM87.0718 313L86.2647 313.59L87.0718 313ZM260.819 329.5L260.171 328.738L260.819 329.5ZM265.442 60.5259C265.18 60.0396 264.573 59.8577 264.087 60.1195C263.601 60.3814 263.419 60.9878 263.681 61.4741L265.442 60.5259ZM5.74643 418.117C6.2085 417.814 6.33787 417.194 6.03538 416.732C5.73289 416.27 5.11308 416.141 4.651 416.443L5.74643 418.117ZM12.986 410.881C12.5293 411.192 12.4106 411.814 12.721 412.27C13.0315 412.727 13.6534 412.846 14.1102 412.535L12.986 410.881ZM22.415 406.795C22.8669 406.477 22.9758 405.854 22.6583 405.402C22.3408 404.95 21.7171 404.841 21.2652 405.159L22.415 406.795ZM29.424 399.335C28.9768 399.659 28.8771 400.284 29.2013 400.732C29.5254 401.179 30.1507 401.278 30.5978 400.954L29.424 399.335ZM38.7079 394.985C39.1503 394.654 39.2409 394.028 38.9103 393.585C38.5797 393.143 37.9531 393.052 37.5107 393.383L38.7079 394.985ZM45.5214 387.305C45.0839 387.642 45.0025 388.27 45.3396 388.707C45.6766 389.145 46.3045 389.226 46.742 388.889L45.5214 387.305ZM54.6654 382.689C55.0978 382.346 55.1697 381.717 54.826 381.284C54.4824 380.852 53.8533 380.78 53.421 381.124L54.6654 382.689ZM61.2292 374.817C60.8024 375.167 60.7405 375.797 61.0909 376.224C61.4414 376.651 62.0715 376.713 62.4984 376.362L61.2292 374.817ZM70.2301 369.904C70.6509 369.547 70.7021 368.915 70.3444 368.495C69.9867 368.074 69.3557 368.023 68.9348 368.38L70.2301 369.904ZM76.5229 361.811C76.1087 362.177 76.0692 362.809 76.4345 363.223C76.7999 363.637 77.4318 363.676 77.846 363.311L76.5229 361.811ZM85.3359 356.57C85.7426 356.196 85.7694 355.563 85.3957 355.157C85.022 354.75 84.3894 354.723 83.9827 355.097L85.3359 356.57ZM91.2965 348.225C90.8984 348.608 90.886 349.241 91.2688 349.639C91.6515 350.038 92.2846 350.05 92.6827 349.667L91.2965 348.225ZM99.8597 342.592C100.248 342.199 100.244 341.566 99.8514 341.178C99.4585 340.79 98.8254 340.793 98.4372 341.186L99.8597 342.592ZM105.373 333.963C104.997 334.367 105.019 335 105.423 335.376C105.827 335.753 106.46 335.73 106.836 335.326L105.373 333.963ZM113.599 327.817C113.961 327.4 113.917 326.768 113.5 326.406C113.083 326.044 112.451 326.088 112.089 326.505L113.599 327.817ZM118.5 318.817C118.156 319.249 118.226 319.878 118.658 320.223C119.09 320.567 119.719 320.497 120.063 320.065L118.5 318.817ZM126.165 312.019C126.487 311.57 126.384 310.946 125.936 310.624C125.487 310.302 124.862 310.405 124.54 310.854L126.165 312.019ZM130.111 302.55C129.819 303.019 129.963 303.635 130.432 303.927C130.9 304.219 131.517 304.075 131.809 303.607L130.111 302.55ZM136.806 294.791C137.057 294.299 136.861 293.696 136.368 293.446C135.876 293.196 135.274 293.392 135.024 293.884L136.806 294.791ZM139.014 284.818C138.823 285.336 139.089 285.911 139.608 286.101C140.126 286.292 140.701 286.026 140.891 285.507L139.014 284.818ZM143.64 275.66C143.74 275.116 143.381 274.595 142.837 274.495C142.294 274.395 141.773 274.754 141.673 275.297L143.64 275.66ZM142.338 265.536C142.371 266.087 142.845 266.508 143.396 266.475C143.948 266.442 144.368 265.968 144.335 265.417L142.338 265.536ZM142.368 255.4C142.202 254.874 141.641 254.581 141.114 254.747C140.587 254.913 140.295 255.475 140.461 256.002L142.368 255.4ZM136.561 247.198C136.844 247.672 137.458 247.827 137.932 247.544C138.406 247.261 138.561 246.647 138.278 246.173L136.561 247.198ZM131.943 238.286C131.538 237.91 130.906 237.933 130.53 238.337C130.154 238.742 130.177 239.375 130.581 239.751L131.943 238.286ZM122.679 234.397C123.179 234.633 123.775 234.419 124.011 233.92C124.247 233.42 124.033 232.824 123.534 232.588L122.679 234.397ZM113.823 229.677C113.276 229.597 112.768 229.975 112.688 230.522C112.609 231.068 112.987 231.576 113.533 231.656L113.823 229.677ZM103.953 231.587C104.501 231.517 104.888 231.016 104.819 230.468C104.749 229.92 104.248 229.533 103.7 229.603L103.953 231.587ZM93.9172 232.154C93.4047 232.36 93.1562 232.942 93.3621 233.455C93.568 233.967 94.1504 234.216 94.6629 234.01L93.9172 232.154ZM86.2712 238.686C86.7156 238.359 86.8102 237.733 86.4824 237.288C86.1545 236.844 85.5285 236.749 85.084 237.077L86.2712 238.686ZM77.7922 244.077C77.4471 244.508 77.5168 245.137 77.948 245.482C78.3792 245.828 79.0085 245.758 79.3536 245.327L77.7922 244.077ZM74.4034 253.533C74.6241 253.027 74.3925 252.438 73.8862 252.217C73.38 251.996 72.7906 252.228 72.57 252.734L74.4034 253.533ZM69.743 262.431C69.6549 262.976 70.0255 263.489 70.5708 263.577C71.116 263.665 71.6293 263.295 71.7174 262.75L69.743 262.431ZM71.2632 272.368C71.2304 271.817 70.757 271.397 70.2056 271.43C69.6543 271.462 69.234 271.936 69.2667 272.487L71.2632 272.368ZM70.7964 282.414C70.9277 282.951 71.469 283.279 72.0054 283.148C72.5419 283.017 72.8703 282.476 72.7391 281.939L70.7964 282.414ZM75.7566 291.197C75.5494 290.685 74.9665 290.438 74.4545 290.646C73.9425 290.853 73.6955 291.436 73.9026 291.948L75.7566 291.197ZM78.19 300.961C78.4544 301.445 79.0619 301.624 79.5467 301.36C80.0316 301.095 80.2103 300.488 79.9458 300.003L78.19 300.961ZM85.0166 308.33C84.7087 307.872 84.0874 307.75 83.6289 308.058C83.1704 308.366 83.0483 308.987 83.3563 309.445L85.0166 308.33ZM89.2465 317.5C89.5903 317.932 90.2194 318.004 90.6516 317.66C91.0839 317.316 91.1556 316.687 90.8118 316.255L89.2465 317.5ZM97.0691 323.479C96.6899 323.078 96.057 323.06 95.6555 323.439C95.2539 323.818 95.2359 324.451 95.6151 324.852L97.0691 323.479ZM102.603 331.613C103.017 331.978 103.649 331.939 104.015 331.525C104.38 331.111 104.34 330.479 103.926 330.113L102.603 331.613ZM111.391 336.089C110.944 335.765 110.318 335.865 109.994 336.312C109.671 336.76 109.771 337.385 110.218 337.709L111.391 336.089ZM118.396 343.035C118.874 343.313 119.486 343.151 119.764 342.674C120.042 342.197 119.88 341.585 119.403 341.306L118.396 343.035ZM127.879 345.697C127.376 345.467 126.783 345.688 126.553 346.191C126.324 346.693 126.545 347.286 127.048 347.516L127.879 345.697ZM136.102 351.129C136.624 351.308 137.193 351.031 137.373 350.508C137.552 349.986 137.275 349.417 136.752 349.237L136.102 351.129ZM145.932 351.921C145.395 351.791 144.854 352.12 144.724 352.657C144.593 353.193 144.923 353.734 145.459 353.865L145.932 351.921ZM155.01 355.744C155.556 355.827 156.066 355.451 156.149 354.905C156.232 354.359 155.857 353.85 155.311 353.766L155.01 355.744ZM164.833 354.817C164.282 354.779 163.805 355.194 163.766 355.745C163.727 356.296 164.143 356.774 164.694 356.813L164.833 354.817ZM174.415 357.123C174.967 357.12 175.413 356.67 175.41 356.118C175.407 355.566 174.957 355.12 174.405 355.123L174.415 357.123ZM183.99 354.74C183.439 354.781 183.025 355.261 183.066 355.812C183.107 356.362 183.587 356.776 184.137 356.735L183.99 354.74ZM193.799 355.706C194.346 355.63 194.728 355.125 194.652 354.578C194.576 354.031 194.071 353.649 193.524 353.725L193.799 355.706ZM202.995 352.123C202.454 352.231 202.102 352.758 202.21 353.299C202.318 353.841 202.845 354.192 203.387 354.084L202.995 352.123ZM212.84 351.92C213.375 351.782 213.697 351.236 213.559 350.702C213.42 350.167 212.875 349.845 212.34 349.984L212.84 351.92ZM221.588 347.325C221.061 347.492 220.77 348.054 220.937 348.58C221.104 349.107 221.666 349.398 222.192 349.231L221.588 347.325ZM231.371 346.048C231.888 345.853 232.149 345.276 231.954 344.76C231.759 344.243 231.182 343.982 230.665 344.177L231.371 346.048ZM239.548 340.537C239.043 340.761 238.816 341.352 239.04 341.857C239.264 342.361 239.855 342.589 240.36 342.365L239.548 340.537ZM249.126 338.128C249.614 337.871 249.801 337.266 249.544 336.777C249.286 336.289 248.681 336.101 248.193 336.359L249.126 338.128ZM256.411 331.528C255.952 331.835 255.829 332.456 256.136 332.915C256.443 333.374 257.064 333.497 257.523 333.19L256.411 331.528ZM265.08 326.557C265.438 326.136 265.387 325.505 264.966 325.147C264.546 324.79 263.914 324.841 263.557 325.261L265.08 326.557ZM269.425 317.196C269.127 317.661 269.261 318.28 269.726 318.578C270.191 318.877 270.809 318.742 271.108 318.277L269.425 317.196ZM276.266 309.471C276.527 308.985 276.345 308.379 275.858 308.117C275.372 307.856 274.765 308.038 274.504 308.524L276.266 309.471ZM279.009 299.482C278.777 299.983 278.995 300.578 279.496 300.81C279.998 301.041 280.592 300.823 280.824 300.322L279.009 299.482ZM284.837 291.011C285.043 290.498 284.794 289.916 284.282 289.71C283.769 289.505 283.187 289.753 282.981 290.266L284.837 291.011ZM286.528 280.785C286.346 281.306 286.622 281.876 287.144 282.058C287.665 282.239 288.235 281.963 288.417 281.441L286.528 280.785ZM291.532 271.801C291.69 271.272 291.39 270.715 290.861 270.556C290.331 270.398 289.774 270.699 289.616 271.228L291.532 271.801ZM292.299 261.513C292.163 262.048 292.487 262.592 293.022 262.728C293.557 262.864 294.102 262.54 294.237 262.004L292.299 261.513ZM296.534 252.09C296.648 251.55 296.302 251.02 295.762 250.906C295.221 250.793 294.691 251.139 294.577 251.679L296.534 252.09ZM296.454 241.756C296.362 242.301 296.729 242.817 297.274 242.908C297.818 243 298.334 242.633 298.426 242.088L296.454 241.756ZM299.914 232.02C299.984 231.472 299.597 230.971 299.049 230.901C298.501 230.831 298 231.219 297.93 231.767L299.914 232.02ZM299.008 221.747C298.96 222.297 299.367 222.782 299.917 222.831C300.467 222.879 300.952 222.472 301.001 221.922L299.008 221.747ZM301.691 211.785C301.718 211.234 301.292 210.765 300.741 210.738C300.189 210.711 299.72 211.137 299.693 211.688L301.691 211.785ZM299.987 201.606C299.982 202.159 300.425 202.611 300.977 202.616C301.53 202.622 301.982 202.178 301.987 201.626L299.987 201.606ZM301.892 191.46C301.876 190.908 301.416 190.473 300.864 190.489C300.311 190.504 299.877 190.965 299.893 191.517L301.892 191.46ZM299.412 181.438C299.449 181.989 299.925 182.406 300.476 182.369C301.027 182.332 301.444 181.856 301.408 181.305L299.412 181.438ZM300.541 171.191C300.483 170.642 299.991 170.243 299.442 170.301C298.893 170.358 298.494 170.85 298.552 171.4L300.541 171.191ZM297.316 161.401C297.394 161.948 297.9 162.328 298.447 162.25C298.994 162.172 299.374 161.665 299.296 161.119L297.316 161.401ZM297.679 151.098C297.581 150.554 297.061 150.193 296.518 150.291C295.974 150.389 295.613 150.909 295.711 151.452L297.679 151.098ZM293.743 141.564C293.861 142.104 294.393 142.446 294.933 142.329C295.473 142.211 295.815 141.678 295.697 141.139L293.743 141.564ZM293.356 131.25C293.22 130.714 292.675 130.392 292.14 130.528C291.605 130.665 291.282 131.21 291.419 131.745L293.356 131.25ZM288.745 122C288.9 122.53 289.456 122.834 289.986 122.679C290.516 122.523 290.819 121.967 290.664 121.438L288.745 122ZM287.631 111.723C287.458 111.199 286.892 110.915 286.368 111.088C285.844 111.262 285.559 111.827 285.733 112.352L287.631 111.723ZM282.411 102.857C282.602 103.375 283.177 103.64 283.696 103.449C284.214 103.258 284.479 102.683 284.288 102.165L282.411 102.857ZM280.624 92.7057C280.416 92.194 279.832 91.9477 279.321 92.1556C278.809 92.3635 278.563 92.9468 278.771 93.4584L280.624 92.7057ZM274.817 84.1572C275.041 84.6619 275.632 84.8894 276.137 84.6653C276.641 84.4412 276.869 83.8503 276.645 83.3456L274.817 84.1572ZM272.367 74.1042C272.128 73.6066 271.53 73.3976 271.032 73.6374C270.535 73.8771 270.326 74.4748 270.566 74.9723L272.367 74.1042ZM266.066 65.9841C266.321 66.4743 266.925 66.6652 267.415 66.4106C267.905 66.1561 268.096 65.5524 267.841 65.0623L266.066 65.9841ZM1.53951 420.842C2.90846 419.965 4.31175 419.056 5.74643 418.117L4.651 416.443C3.22164 417.379 1.82381 418.284 0.460486 419.158L1.53951 420.842ZM14.1102 412.535C16.8048 410.704 19.5784 408.788 22.415 406.795L21.2652 405.159C18.437 407.146 15.672 409.056 12.986 410.881L14.1102 412.535ZM30.5978 400.954C33.2655 399.021 35.9728 397.029 38.7079 394.985L37.5107 393.383C34.7835 395.421 32.084 397.407 29.424 399.335L30.5978 400.954ZM46.742 388.889C49.3719 386.863 52.0164 384.795 54.6654 382.689L53.421 381.124C50.7801 383.223 48.1435 385.285 45.5214 387.305L46.742 388.889ZM62.4984 376.362C65.0838 374.239 67.6642 372.085 70.2301 369.904L68.9348 368.38C66.3779 370.554 63.8062 372.701 61.2292 374.817L62.4984 376.362ZM77.846 363.311C80.3694 361.085 82.8691 358.836 85.3359 356.57L83.9827 355.097C81.5263 357.354 79.0366 359.594 76.5229 361.811L77.846 363.311ZM92.6827 349.667C95.1223 347.322 97.518 344.962 99.8597 342.592L98.4372 341.186C96.1081 343.543 93.7246 345.891 91.2965 348.225L92.6827 349.667ZM106.836 335.326C109.164 332.827 111.423 330.322 113.599 327.817L112.089 326.505C109.929 328.992 107.686 331.479 105.373 333.963L106.836 335.326ZM120.063 320.065C122.21 317.376 124.248 314.692 126.165 312.019L124.54 310.854C122.645 313.496 120.627 316.152 118.5 318.817L120.063 320.065ZM131.809 303.607C133.654 300.643 135.327 297.701 136.806 294.791L135.024 293.884C133.573 296.738 131.929 299.629 130.111 302.55L131.809 303.607ZM140.891 285.507C142.118 282.166 143.047 278.878 143.64 275.66L141.673 275.297C141.103 278.389 140.207 281.568 139.014 284.818L140.891 285.507ZM144.335 265.417C144.231 263.679 144.005 261.97 143.649 260.293L141.693 260.708C142.027 262.283 142.24 263.893 142.338 265.536L144.335 265.417ZM143.649 260.293C143.288 258.588 142.859 256.958 142.368 255.4L140.461 256.002C140.932 257.496 141.344 259.064 141.693 260.708L143.649 260.293ZM138.278 246.173C136.452 243.115 134.315 240.491 131.943 238.286L130.581 239.751C132.811 241.824 134.829 244.299 136.561 247.198L138.278 246.173ZM123.534 232.588C120.437 231.126 117.164 230.165 113.823 229.677L113.533 231.656C116.688 232.117 119.77 233.023 122.679 234.397L123.534 232.588ZM103.7 229.603C100.368 230.027 97.0725 230.886 93.9172 232.154L94.6629 234.01C97.6618 232.805 100.792 231.989 103.953 231.587L103.7 229.603ZM85.084 237.077C82.3976 239.058 79.9355 241.399 77.7922 244.077L79.3536 245.327C81.3852 242.788 83.7205 240.568 86.2712 238.686L85.084 237.077ZM72.57 252.734C71.2687 255.719 70.3039 258.958 69.743 262.431L71.7174 262.75C72.2518 259.441 73.1695 256.364 74.4034 253.533L72.57 252.734ZM69.2667 272.487C69.4551 275.657 69.9533 278.97 70.7964 282.414L72.7391 281.939C71.9232 278.605 71.4441 275.412 71.2632 272.368L69.2667 272.487ZM73.9026 291.948C75.087 294.875 76.5102 297.881 78.19 300.961L79.9458 300.003C78.3006 296.986 76.9106 294.05 75.7566 291.197L73.9026 291.948ZM83.3563 309.445C84.2756 310.814 85.2446 312.196 86.2647 313.59L87.8788 312.41C86.8742 311.036 85.9206 309.676 85.0166 308.33L83.3563 309.445ZM86.2647 313.59C87.2448 314.93 88.239 316.233 89.2465 317.5L90.8118 316.255C89.8212 315.009 88.8433 313.728 87.8788 312.41L86.2647 313.59ZM95.6151 324.852C97.8918 327.263 100.223 329.514 102.603 331.613L103.926 330.113C101.592 328.055 99.3045 325.846 97.0691 323.479L95.6151 324.852ZM110.218 337.709C112.899 339.65 115.628 341.422 118.396 343.035L119.403 341.306C116.692 339.727 114.018 337.991 111.391 336.089L110.218 337.709ZM127.048 347.516C130.037 348.881 133.058 350.081 136.102 351.129L136.752 349.237C133.768 348.211 130.807 347.034 127.879 345.697L127.048 347.516ZM145.459 353.865C148.634 354.636 151.822 355.258 155.01 355.744L155.311 353.766C152.178 353.289 149.048 352.679 145.932 351.921L145.459 353.865ZM164.694 356.813C167.949 357.04 171.194 357.139 174.415 357.123L174.405 355.123C171.231 355.139 168.037 355.042 164.833 354.817L164.694 356.813ZM184.137 356.735C187.399 356.493 190.624 356.145 193.799 355.706L193.524 353.725C190.39 354.159 187.207 354.502 183.99 354.74L184.137 356.735ZM203.387 354.084C206.613 353.441 209.77 352.713 212.84 351.92L212.34 349.984C209.304 350.768 206.184 351.487 202.995 352.123L203.387 354.084ZM222.192 349.231C225.384 348.22 228.45 347.151 231.371 346.048L230.665 344.177C227.777 345.267 224.744 346.324 221.588 347.325L222.192 349.231ZM240.36 342.365C243.552 340.947 246.488 339.519 249.126 338.128L248.193 336.359C245.596 337.728 242.701 339.137 239.548 340.537L240.36 342.365ZM257.523 333.19C259.088 332.143 260.413 331.158 261.467 330.262L260.171 328.738C259.191 329.571 257.932 330.511 256.411 331.528L257.523 333.19ZM261.467 330.262C262.569 329.325 263.784 328.081 265.08 326.557L263.557 325.261C262.307 326.731 261.168 327.89 260.171 328.738L261.467 330.262ZM271.108 318.277C272.777 315.678 274.511 312.736 276.266 309.471L274.504 308.524C272.772 311.747 271.064 314.644 269.425 317.196L271.108 318.277ZM280.824 300.322C282.176 297.397 283.52 294.291 284.837 291.011L282.981 290.266C281.677 293.515 280.346 296.589 279.009 299.482L280.824 300.322ZM288.417 281.441C289.492 278.349 290.535 275.134 291.532 271.801L289.616 271.228C288.627 274.533 287.594 277.72 286.528 280.785L288.417 281.441ZM294.237 262.004C295.052 258.791 295.821 255.485 296.534 252.09L294.577 251.679C293.87 255.047 293.107 258.326 292.299 261.513L294.237 262.004ZM298.426 242.088C298.979 238.803 299.477 235.446 299.914 232.02L297.93 231.767C297.497 235.166 297.002 238.497 296.454 241.756L298.426 242.088ZM301.001 221.922C301.292 218.6 301.524 215.22 301.691 211.785L299.693 211.688C299.528 215.097 299.297 218.451 299.008 221.747L301.001 221.922ZM301.987 201.626C302.02 198.284 301.99 194.894 301.892 191.46L299.893 191.517C299.99 194.926 300.02 198.289 299.987 201.606L301.987 201.626ZM301.408 181.305C301.185 177.972 300.898 174.6 300.541 171.191L298.552 171.4C298.906 174.783 299.191 178.13 299.412 181.438L301.408 181.305ZM299.296 161.119C298.825 157.81 298.287 154.469 297.679 151.098L295.711 151.452C296.314 154.799 296.848 158.116 297.316 161.401L299.296 161.119ZM295.697 141.139C294.985 137.868 294.205 134.571 293.356 131.25L291.419 131.745C292.262 135.043 293.036 138.317 293.743 141.564L295.697 141.139ZM290.664 121.438C289.72 118.22 288.71 114.982 287.631 111.723L285.733 112.352C286.804 115.589 287.807 118.805 288.745 122L290.664 121.438ZM284.288 102.165C283.132 99.0287 281.911 95.8754 280.624 92.7057L278.771 93.4584C280.05 96.6079 281.263 99.741 282.411 102.857L284.288 102.165ZM276.645 83.3456C275.283 80.2788 273.858 77.1981 272.367 74.1042L270.566 74.9723C272.047 78.0476 273.464 81.1095 274.817 84.1572L276.645 83.3456ZM267.841 65.0623C267.057 63.553 266.258 62.0408 265.442 60.5259L263.681 61.4741C264.492 62.9803 265.287 64.4837 266.066 65.9841L267.841 65.0623Z" fill="#A0A0A0"/>
<path d="M261.022 3.1145C268.865 3.1145 276.15 9.39502 276.15 17.3184C276.15 22.5556 274.381 26.2584 271.416 30.5753C267.79 35.8537 263.065 40.7937 261.516 42.3673C261.229 42.6585 260.77 42.6585 260.483 42.3673C258.934 40.7937 254.209 35.8537 250.583 30.5753C247.618 26.2584 245.849 22.5556 245.849 17.3184C245.849 9.39502 253.134 3.1145 260.977 3.1145" stroke="#A0A0A0" stroke-width="3" stroke-linecap="round"/>
<path d="M266.681 18.1551C266.681 21.3238 264.146 23.9443 261.008 23.9443C257.871 23.9443 255.318 21.3238 255.318 18.1551C255.318 14.9864 257.871 12.5835 261.008 12.5835C264.146 12.5835 266.681 14.9864 266.681 18.1551Z" stroke="#A0A0A0" stroke-width="3"/>
</svg>
